<?xml version="1.0" encoding="UTF-8" standalone="no"?>
<!-- Generator: Adobe Illustrator 16.0.0, SVG Export Plug-In . SVG Version: 6.00 Build 0)  -->

<svg
   xmlns:dc="http://purl.org/dc/elements/1.1/"
   xmlns:cc="http://creativecommons.org/ns#"
   xmlns:rdf="http://www.w3.org/1999/02/22-rdf-syntax-ns#"
   xmlns:svg="http://www.w3.org/2000/svg"
   xmlns="http://www.w3.org/2000/svg"
   xmlns:sodipodi="http://sodipodi.sourceforge.net/DTD/sodipodi-0.dtd"
   xmlns:inkscape="http://www.inkscape.org/namespaces/inkscape"
   version="1.1"
   id="svg2"
   x="0px"
   y="0px"
   width="16"
   height="16"
   viewBox="35.188 31.512 16 16"
   enable-background="new 35.188 31.512 351.46 258.785"
   xml:space="preserve"
   inkscape:version="0.48.4 r9939"
   sodipodi:docname="my-icon-inactive-symbolic.svg"><metadata
     id="metadata3041"><rdf:RDF><cc:Work
         rdf:about=""><dc:format>image/svg+xml</dc:format><dc:type
           rdf:resource="http://purl.org/dc/dcmitype/StillImage" /><dc:title>generated by pstoedit version:3.44 from NVBadge_2D.eps</dc:title></cc:Work></rdf:RDF></metadata><defs
     id="defs3039"><clipPath
       clipPathUnits="userSpaceOnUse"
       id="clipPath3668"><rect
         height="3.3729413"
         id="rect3670"
         style="color:#bebebe;fill:#bebebe;fill-opacity:1;stroke:none;stroke-width:2;marker:none;visibility:visible;display:inline;overflow:visible"
         width="1.8762826"
         x="26.998718"
         y="221.50153" /></clipPath><clipPath
       clipPathUnits="userSpaceOnUse"
       id="clipPath3697"><path
         inkscape:connector-curvature="0"
         d="m 26.965789,221.32959 0,5.21591 0.579546,0 0,-1.15909 2.318182,0 0,-4.05682 -2.897728,0 z"
         id="path3699"
         style="color:#bebebe;fill:#bebebe;fill-opacity:1;fill-rule:nonzero;stroke:none;stroke-width:2;marker:none;visibility:visible;display:inline;overflow:visible" /></clipPath><clipPath
       clipPathUnits="userSpaceOnUse"
       id="clipPath6279-2-3"><rect
         height="6.3750005"
         id="rect6281-5-3"
         style="color:#bebebe;fill:#bebebe;fill-opacity:1;fill-rule:nonzero;stroke:none;stroke-width:2;marker:none;visibility:visible;display:inline;overflow:visible"
         width="3.8250003"
         x="26.85"
         y="220.75" /></clipPath><clipPath
       clipPathUnits="userSpaceOnUse"
       id="clipPath3668-7"><rect
         height="3.3729413"
         id="rect3670-6"
         style="color:#bebebe;fill:#bebebe;fill-opacity:1;stroke:none;stroke-width:2;marker:none;visibility:visible;display:inline;overflow:visible"
         width="1.8762826"
         x="26.998718"
         y="221.50153" /></clipPath><clipPath
       clipPathUnits="userSpaceOnUse"
       id="clipPath3697-0"><path
         inkscape:connector-curvature="0"
         d="m 26.965789,221.32959 0,5.21591 0.579546,0 0,-1.15909 2.318182,0 0,-4.05682 -2.897728,0 z"
         id="path3699-4"
         style="color:#bebebe;fill:#bebebe;fill-opacity:1;fill-rule:nonzero;stroke:none;stroke-width:2;marker:none;visibility:visible;display:inline;overflow:visible" /></clipPath><clipPath
       clipPathUnits="userSpaceOnUse"
       id="clipPath6279-2-3-7"><rect
         height="6.3750005"
         id="rect6281-5-3-9"
         style="color:#bebebe;fill:#bebebe;fill-opacity:1;fill-rule:nonzero;stroke:none;stroke-width:2;marker:none;visibility:visible;display:inline;overflow:visible"
         width="3.8250003"
         x="26.85"
         y="220.75" /></clipPath></defs><sodipodi:namedview
     pagecolor="#ffffff"
     bordercolor="#666666"
     borderopacity="1"
     objecttolerance="10"
     gridtolerance="10"
     guidetolerance="10"
     inkscape:pageopacity="0"
     inkscape:pageshadow="2"
     inkscape:window-width="1920"
     inkscape:window-height="1022"
     id="namedview3037"
     showgrid="false"
     fit-margin-top="0"
     fit-margin-left="0"
     fit-margin-right="0"
     fit-margin-bottom="0"
     inkscape:zoom="36.155252"
     inkscape:cx="8.1644424"
     inkscape:cy="5.3834916"
     inkscape:window-x="0"
     inkscape:window-y="27"
     inkscape:window-maximized="1"
     inkscape:current-layer="svg2"
     inkscape:snap-bbox="true"
     inkscape:bbox-nodes="true"
     inkscape:snap-page="true"
     inkscape:object-nodes="true"
     inkscape:snap-midpoints="true" /><title
     id="title4">generated by pstoedit version:3.44 from NVBadge_2D.eps</title><path
     style="fill:#bebebe;fill-opacity:1;opacity:0.7"
     d="M 5.96875 2.90625 L 5.96875 4.34375 C 6.06267 4.33675 6.155568 4.3157 6.25 4.3125 C 9.887267 4.18991 12.25 7.3125 12.25 7.3125 C 12.25 7.3125 9.523284 10.625 6.6875 10.625 C 6.427603 10.625 6.197276 10.603 5.96875 10.5625 L 5.96875 11.4375 C 6.164171 11.4623 6.382323 11.46875 6.59375 11.46875 C 7.8865982 11.46875 8.9790429 11.142567 10 10.625 L 10 10 L 11.0625 10 C 11.723809 9.5610961 12.346708 9.0681858 12.96875 8.53125 C 13.275124 8.77662 14.523411 9.36368 14.78125 9.625 C 14.625863 9.7550933 14.439113 9.8749914 14.25 10 L 16 10 L 16 2.90625 L 5.96875 2.90625 z M 5.96875 11.4375 C 2.73936 11.03123 1.625 7.46875 1.625 7.46875 C 1.625 7.46875 3.080317 5.34582 5.96875 5.125 L 5.96875 4.34375 C 2.769444 4.60069 0 7.3125 0 7.3125 C 0 7.3125 1.568122 11.83467 5.96875 12.25 L 5.96875 11.4375 z M 5.96875 12.25 L 5.96875 13.5 L 10 13.5 L 10 11.78125 C 8.7617268 12.105521 7.5574775 12.28125 6.625 12.28125 C 6.401231 12.28125 6.179984 12.2703 5.96875 12.25 z M 5.96875 5.125 L 5.96875 6.0625 C 6.139872 6.0442 6.317886 6.03118 6.5 6.03125 C 8.175411 6.03125 9.15625 7.34375 9.15625 7.34375 L 7.8125 8.5 C 7.200332 7.4795 6.986994 7.02928 5.96875 6.90625 L 5.96875 9.78125 C 6.199526 9.85881 6.464004 9.90625 6.75 9.90625 C 8.737248 9.90625 10.59375 7.34375 10.59375 7.34375 C 10.59375 7.34375 8.865551 5.01165 6.25 5.09375 C 6.154347 5.09675 6.0617 5.118 5.96875 5.125 z M 5.96875 9.78125 C 4.59277 9.31893 4.15625 7.71875 4.15625 7.71875 C 4.15625 7.71875 4.947227 6.78366 5.96875 6.90625 L 5.96875 6.0625 C 4.02245 6.27302 2.84375 7.5625 2.84375 7.5625 C 2.84375 7.5625 3.528049 10.12737 5.96875 10.5625 L 5.96875 9.78125 z "
     transform="translate(35.188,31.512)"
     id="path21" /><path
     style="color:#bebebe;fill:#bebebe;fill-opacity:1;stroke:none;stroke-width:2;marker:none;visibility:visible;display:inline;overflow:visible"
     sodipodi:nodetypes="ccccccccccccccccc"
     id="path3761-2-3-5-4-8-9-8-0-1-7-7"
     d="m 46.18775,42.512 1.375,0 1.125,1.09375 1.09375,-1.09375 1.40625,0 0,1.46875 -1.09375,1.0625 1.09375,1.0625 0,1.40625 -1.4375,0 -1.0625,-1.0625 -1.0625,1.0625 -1.4375,0 0,-1.40625 1.0625,-1.0625 -1.0625,-1.0625 0,-1.46875 z"
     inkscape:connector-curvature="0" /></svg>